<?xml version="1.0" encoding="UTF-8" standalone="no"?><!DOCTYPE svg PUBLIC "-//W3C//DTD SVG 1.1//EN" "http://www.w3.org/Graphics/SVG/1.1/DTD/svg11.dtd"><svg width="100%" height="100%" viewBox="0 0 300 300" version="1.1" xmlns="http://www.w3.org/2000/svg" xmlns:xlink="http://www.w3.org/1999/xlink" xml:space="preserve" xmlns:serif="http://www.serif.com/" style="fill-rule:evenodd;clip-rule:evenodd;stroke-linecap:round;stroke-linejoin:round;stroke-miterlimit:1.5;"><g id="Fundo"><path d="M129.558,-0l41.717,0c0.164,0.241 -0.223,0.477 0.595,0.872c5.059,2.442 4.7,4.791 8.65,20.572c0.151,0.605 1.574,6.287 1.955,7.547c0.267,0.883 -0.199,0.967 2.629,11.223c0.514,1.863 1.849,0.121 17.231,7.701c2.441,1.203 2.459,-0.095 10.513,-4.531c0.799,-0.44 6.676,-3.676 9.705,-5.975c1.025,-0.778 6.213,-3.661 6.761,-3.965c8.934,-4.964 11.234,-0.583 26.076,14.218c11.358,11.327 16.575,14.467 12.282,22.966c-2.323,4.6 -2.947,4.202 -5.288,8.789c-3.118,6.11 -3.925,5.59 -7.051,11.719c-1.974,3.869 -4.257,3.788 -2.125,8.056c2.766,5.535 2.83,5.458 4.875,11.319c1.633,4.681 2.001,4.782 2.424,4.898c3.322,0.911 35.073,8.133 36.341,9.305c1.595,1.475 1.679,1.353 2.786,3.169c0.627,1.029 0.954,0.582 1.198,0.73l0,42.774c-0.244,0.149 -0.571,-0.299 -1.198,0.73c-1.107,1.816 -1.191,1.694 -2.786,3.169c-1.268,1.172 -33.027,8.396 -36.341,9.305c-1.222,0.335 -3.239,8.194 -5.377,12.493c-2.426,4.877 -3.233,4.979 -2.146,7.092c3.139,6.104 3.915,5.602 7.05,11.719c3.138,6.123 3.923,5.616 7.051,11.719c4.78,9.324 1.7,10.768 -9.94,22.374c-17.404,17.353 -18.551,20.564 -28.204,15.572c-7.159,-3.702 -6.658,-4.453 -13.744,-8.357c-0.641,-0.353 -6.922,-3.814 -7.922,-4.572c-4.291,-3.252 -4.481,0.463 -17.767,4.939c-4.117,1.387 -4.19,1.624 -4.676,3.482c-1.235,4.725 -1.171,4.687 -2.345,9.377c-5.238,20.931 -5.003,25.48 -9.894,28.376c-1.066,0.632 -0.573,0.935 -0.732,1.195l-42.892,0c-0.159,-0.26 0.334,-0.563 -0.732,-1.195c-5.815,-3.444 -5.255,-12.073 -9.292,-25.452c-0.322,-1.068 0.212,-1.164 -3.215,-13.567c-0.407,-1.472 -1.389,-0.26 -17.441,-7.858c-2.167,-1.026 -2.201,-0.012 -9.723,4.092c-7.048,3.845 -18.613,13.27 -24.242,11.499c-3.712,-1.167 -3.551,-1.635 -23.589,-21.617c-6.287,-6.27 -10.593,-9.367 -7.223,-16.046c3.509,-6.953 6.043,-9.826 8.462,-14.546c2.363,-4.612 7.823,-10.044 6.233,-13.327c-3.381,-6.982 -3.422,-6.912 -6.049,-14.249c-1.155,-3.225 -1.514,-3.265 -4.88,-3.854c-0.86,-0.151 -25.325,-6.239 -27.526,-6.787c-4.72,-1.175 -6.369,-1.391 -8.553,-4.975c-0.627,-1.029 -0.955,-0.582 -1.198,-0.73l0,-42.774c0.243,-0.148 0.571,0.299 1.198,-0.73c1.107,-1.816 1.191,-1.694 2.786,-3.169c1.22,-1.128 36.011,-9.217 36.34,-9.307c1.303,-0.357 2.416,-6.482 5.963,-13.665c1.541,-3.12 1.303,-3.348 -0.408,-6.401c-14.863,-26.519 -19.3,-26.636 -15.074,-34.722c1.26,-2.411 1.502,-2.266 23.713,-24.415c8.549,-8.525 13.267,-3.471 18.762,-0.418c0.592,0.329 14.153,8.492 14.689,8.79c0.548,0.305 5.761,3.203 6.763,3.967c2.351,1.793 2.215,-1.274 16.59,-6.114c4.115,-1.386 4.19,-1.622 4.676,-3.482c8.871,-33.925 7.278,-35.394 11.782,-37.505c1.1,-0.515 1.096,-0.484 1.776,-1.444Zm-40.294,156.728c-0.132,-13.945 -0.601,-15.933 4.302,-29.934c2.252,-6.432 11.998,-22.106 26.731,-30.148c23.11,-12.616 52.645,-10.811 74.383,10.971c6.27,6.283 11.753,16.791 12.589,19.178c5.375,15.351 5.033,20.885 3.783,32.263c-1.399,12.735 -10.087,31.165 -26.688,41.828c-19.036,12.227 -33.472,10.626 -43.028,9.582c-15.073,-1.647 -28.413,-11.529 -32.507,-15.474c-12.183,-11.738 -17.249,-23.407 -19.564,-38.265Z" style="fill:#fdbf1c;fill-opacity:1;"/><g id="Fundo1" serif:id="Fundo"><ellipse cx="149.803" cy="149.872" rx="66.841" ry="64.944" style="fill:#fff;stroke:#ceb9b9;stroke-width:1px;"/></g><path d="M170.418,67.098l-62.976,93.235l33.818,0.287l-16.352,72.283l67.65,-99.139l-34.194,0.492l12.054,-67.158Z"/></g></svg>